<?xml version="1.0" encoding="utf-8"?>
<!-- Generator: Adobe Illustrator 21.0.0, SVG Export Plug-In . SVG Version: 6.00 Build 0)  -->
<svg version="1.1" id="Layer_1" xmlns="http://www.w3.org/2000/svg" xmlns:xlink="http://www.w3.org/1999/xlink" x="0px" y="0px"
	 viewBox="0 0 512 512" style="enable-background:new 0 0 512 512;" xml:space="preserve">
<style type="text/css">
	.st0{fill:#2185D0;}
	.st1{fill:#FFFFFF;}
</style>
<g>
	<path class="st0" d="M367,465H144c-6.6,0-12-5.4-12-12V318c0-6.6,5.4-12,12-12h223c6.6,0,12,5.4,12,12v135
		C379,459.6,373.6,465,367,465z"/>
	<path class="st0" d="M77,342H58.8v-26.2c0-5,4.1-9.1,9.1-9.1H77V342L77,342z"/>
	<path class="st0" d="M453.2,342H435v-35.3h9.1c5,0,9.1,4.1,9.1,9.1V342L453.2,342z"/>
	<path class="st0" d="M144.3,76.4c0-5,4.1-9.1,9.1-9.1h205.2c5,0,9.1,4.1,9.1,9.1v85.5c0,42.7-34.8,77.5-77.5,77.5h-9.1v-26.2
		c0-4.4-3.6-8-8-8h-34.2c-4.4,0-8,3.6-8,8v26.2h-9.1c-42.7,0-77.5-34.8-77.5-77.5V76.4L144.3,76.4z"/>
	<g>
		<g>
			<path d="M367.2,290.7H144.8c-13.9,0-25.1,11.3-25.1,25.1v136.8c0,13.9,11.3,25.1,25.1,25.1h222.3c13.9,0,25.1-11.3,25.1-25.1
				V315.9C392.3,302,381,290.7,367.2,290.7z M376.3,452.7c0,5-4.1,9.1-9.1,9.1H144.8c-5,0-9.1-4.1-9.1-9.1V315.9
				c0-5,4.1-9.1,9.1-9.1h222.3c5,0,9.1,4.1,9.1,9.1L376.3,452.7L376.3,452.7z"/>
		</g>
	</g>
	<path d="M350.1,342H161.9c-4.4,0-8,3.6-8,8s3.6,8,8,8h137.4v11c-9.9,3.4-17.1,12.8-17.1,23.8c0,13.9,11.3,25.1,25.1,25.1
		c13.9,0,25.1-11.3,25.1-25.1c0-11-7.2-20.4-17.1-23.8v-10.9H350c4.4,0,8-3.6,8-8S354.5,342,350.1,342z"/>
	<path class="st1" d="M316.4,392.8c0,5-4.1,9.1-9.1,9.1s-9.1-4.1-9.1-9.1s4.1-9.1,9.1-9.1C312.3,383.7,316.4,387.8,316.4,392.8z"/>
	<path d="M444.1,290.7H435V161.9c0-14.8-3-29.2-8.6-42.5c0-0.1,0-0.1,0-0.2V16.6C426.4,7.5,419,0,409.8,0h-34.2
		C366.5,0,359,7.4,359,16.6v34.8c-0.2,0-0.4,0-0.5,0h-34.7V33.7c0-18.6-15.1-33.7-33.7-33.7h-68.4C203.1,0,188,15.1,188,33.7v17.6
		h-34.7c-0.2,0-0.4,0-0.5,0V16.6c0-9.1-7.4-16.6-16.6-16.6H102c-9.1,0-16.6,7.4-16.6,16.6v102.6c0,0.1,0,0.1,0,0.2
		C80,132.7,77,147.1,77,161.9v128.8h-9.1c-13.9,0-25.1,11.3-25.1,25.1v136.8c0,13.9,11.3,25.1,25.1,25.1h9.9
		c3.8,19.5,20.9,34.2,41.5,34.2h273.6c20.5,0,37.7-14.7,41.4-34.2h9.9c13.9,0,25.1-11.3,25.1-25.1V315.9
		C469.2,302,458,290.7,444.1,290.7z M77,461.8h-9.1c-5,0-9.1-4.1-9.1-9.1v-94.6H77V461.8z M77,342H58.8v-26.2c0-5,4.1-9.1,9.1-9.1
		H77V342L77,342z M375.2,16.6c0-0.3,0.2-0.5,0.5-0.5h34.2c0.3,0,0.5,0.2,0.5,0.5v75.9c-7.9-9.8-17.4-18.2-28.4-24.9
		c-1.5-3.9-3.9-7.3-6.9-10L375.2,16.6L375.2,16.6z M204.2,33.7c0-9.7,7.9-17.6,17.6-17.6h68.4c9.7,0,17.6,7.9,17.6,17.6v17.6H204.2
		V33.7z M144.3,76.4c0-5,4.1-9.1,9.1-9.1h205.2c5,0,9.1,4.1,9.1,9.1v85.5c0,42.7-34.8,77.5-77.5,77.5h-9.1v-26.2c0-4.4-3.6-8-8-8
		h-34.2c-4.4,0-8,3.6-8,8v26.2h-9.1c-42.7,0-77.5-34.8-77.5-77.5V76.4L144.3,76.4z M265.1,221.3v26.2l0,0l0,0c0,5-4.1,9.1-9.1,9.1
		s-9.1-4.1-9.1-9.1v-26.2H265.1L265.1,221.3z M101.5,16.6c0-0.3,0.2-0.5,0.5-0.5h34.2c0.3,0,0.5,0.2,0.5,0.5v41
		c-3.1,2.7-5.5,6.1-6.9,10c-10.9,6.7-20.5,15.2-28.4,24.9L101.5,16.6L101.5,16.6z M419,469.8c0,14.4-11.7,26.2-26.2,26.2H119.2
		c-14.4,0-26.2-11.7-26.2-26.2V161.9c0-28.8,13.2-55.9,35.3-73.7v73.7c0,51.6,42,93.5,93.5,93.5h10.4c3.4,9.9,12.8,17.1,23.8,17.1
		s20.4-7.2,23.8-17.1h10.4c51.6,0,93.5-42,93.5-93.5V88.3c22,17.8,35.3,44.9,35.3,73.7L419,469.8L419,469.8z M453.2,452.7
		c0,5-4.1,9.1-9.1,9.1H435V358.1h18.2V452.7L453.2,452.7z M453.2,342H435v-35.3h9.1c5,0,9.1,4.1,9.1,9.1V342L453.2,342z"/>
</g>
</svg>
