<?xml version="1.0" encoding="utf-8"?>
<!-- Generator: Adobe Illustrator 21.0.0, SVG Export Plug-In . SVG Version: 6.00 Build 0)  -->
<svg version="1.1" id="Layer_1" xmlns="http://www.w3.org/2000/svg" xmlns:xlink="http://www.w3.org/1999/xlink" x="0px" y="0px"
	 viewBox="0 0 512 512" style="enable-background:new 0 0 512 512;" xml:space="preserve">
<style type="text/css">
	.st0{fill:#2185D0;}
</style>
<g>
	<path class="st0" d="M332,33.8L297,89.7c0,0.1-0.1,0.2-0.4,0.2c-0.2,0-0.4-0.1-0.4-0.1l-27.8-22.2l54.3-47.5L332,33.8z"/>
	<path class="st0" d="M189.2,20.1l54.3,47.5l-27.8,22.2c-0.1,0-0.2,0.1-0.4,0.1c-0.2,0-0.3-0.2-0.4-0.2L180,33.8L189.2,20.1z"/>
	<polygon class="st0" points="111,235.6 42.5,208.2 45.1,192.3 111,218.7 	"/>
	<polygon class="st0" points="385,496 127,496 127,478 385,478 385,496 	"/>
	<polygon class="st0" points="401,235.6 401,218.7 466.9,192.3 469.5,208.2 	"/>
	<path d="M485.9,211.9L465.1,86.2c-3.4-20.3-18.5-36.5-38.4-41.1l-79.8-18.5l-15.3-23c-1.3-1.9-3.3-3.2-5.6-3.5
		c-0.4,0-0.7-0.1-1-0.1v0H187v0c-0.3,0-0.7,0-1,0.1c-2.3,0.3-4.3,1.6-5.6,3.5l-15.3,23L85.4,45.1c-20,4.6-35.1,20.8-38.4,41.1
		L26.1,211.9c-0.6,3.7,1.4,7.4,4.9,8.8l80,32.2V504c0,4.4,3.6,8,8,8h274c4.4,0,8-3.6,8-8V252.9l80-32.2
		C484.5,219.3,486.5,215.6,485.9,211.9z M332,33.8L297,89.7c0,0.1-0.1,0.2-0.4,0.2c-0.2,0-0.4-0.1-0.4-0.1l-27.8-22.2l54.3-47.5
		L332,33.8z M303.1,16L256,57.2L208.9,16H303.1z M265,84.9v76.5c0,0.3-0.2,0.5-0.5,0.5h-16.9c-0.3,0-0.5-0.2-0.5-0.5V84.9l9-7.3
		L265,84.9z M189.2,20.1l54.3,47.5l-27.8,22.2c-0.1,0-0.2,0.1-0.4,0.1c-0.2,0-0.3-0.2-0.4-0.2L180,33.8L189.2,20.1z M111,235.6
		l-68.5-27.4l2.6-15.9l65.9,26.4C111,218.7,111,235.6,111,235.6z M385,496H127v-18h258L385,496L385,496z M391.8,145.7
		c-4,0.6-6.8,4.2-6.8,8.2V462H127V153.9c0-4-2.8-7.6-6.8-8.2c-4.9-0.7-9.2,3.1-9.2,7.9v48.3l-63.3-25.3l14.6-87.3
		c2.3-13.9,12.7-25,26.5-28.1l77.9-17.9l34.5,55.1c2.1,3.4,5.3,6.1,9.1,7.3c1.7,0.5,3.4,0.8,5.1,0.8c3.7,0,7.4-1.3,10.4-3.6l5.1-4.1
		v63.7c0,9.2,7.4,16.6,16.6,16.6h16.9c9.2,0,16.6-7.4,16.6-16.6V98.7l5.1,4.1c3,2.4,6.6,3.6,10.4,3.6c0.9,0,1.9-0.1,2.8-0.2
		c4.7-0.8,8.8-3.5,11.3-7.6l34.7-55.4l77.9,17.9c13.8,3.2,24.2,14.2,26.5,28.1l14.6,87.3L401,201.9v-48.3
		C401,148.8,396.8,145,391.8,145.7z M401,235.6v-16.9l65.9-26.4l2.6,15.9L401,235.6z"/>
	<circle class="st0" cx="256.5" cy="104.5" r="4.5"/>
	<circle class="st0" cx="256.5" cy="124.5" r="4.5"/>
	<circle class="st0" cx="256.5" cy="144.5" r="4.5"/>
</g>
</svg>
