<?xml version="1.0" encoding="utf-8"?>
<!-- Generator: Adobe Illustrator 21.0.0, SVG Export Plug-In . SVG Version: 6.00 Build 0)  -->
<svg version="1.1" id="Layer_1" xmlns="http://www.w3.org/2000/svg" xmlns:xlink="http://www.w3.org/1999/xlink" x="0px" y="0px"
	 viewBox="0 0 512 512" style="enable-background:new 0 0 512 512;" xml:space="preserve">
<style type="text/css">
	.st0{fill:#2185D0;}
</style>
<g>
	<path class="st0" d="M376.3,478.4C376.3,478.4,376.3,478.5,376.3,478.4v17c0,0.3-0.2,0.5-0.5,0.5H136.3c-0.3,0-0.5-0.2-0.5-0.5v-17
		c0,0,0,0,0,0v-0.6h240.5V478.4z"/>
	<polygon class="st0" points="203,323.9 309,323.9 336.7,410.5 175.3,410.5 	"/>
	<path class="st0" d="M347.8,19.9c0.1,0.2,0.3,0.4,0.4,0.6l16.9,27.9l-3.7-1.5c-7.6-3.2-16.2-2.4-23.1,2l-72.8,46.3
		c-5.1,3.2-11.5,3.6-16.9,1.1L347.8,19.9z"/>
	<path class="st0" d="M163.8,20.4c0.2-0.3,0.3-0.5,0.5-0.7l80.9,58.9L234,87.2l-60.3-38.4c-6.9-4.4-15.6-5.2-23.1-2l-3.7,1.5
		L163.8,20.4z"/>
	<path class="st0" d="M66,442.4c-0.2-0.1-0.3-0.3-0.3-0.5l1.2-24.3l36.8,15.3l-0.6,19.2c-0.1,2.4,0.2,4.8,0.8,7L66,442.4z"/>
	<path class="st0" d="M446,442.4L408.1,459c0.6-2.3,0.9-4.6,0.8-7l-0.6-19.2l36.8-15.3l1.2,24.3C446.3,442.1,446.2,442.3,446,442.4z
		"/>
	<path d="M470.9,395.2l-9.1-269c-0.8-23.1-15.1-43.8-36.5-52.7l-35.2-14.7l-28.2-46.7C357.4,4.6,349.2,0,340.4,0H171.6
		c-8.7,0-17,4.6-21.5,12.1l-28.2,46.7L86.7,73.5c-21.4,8.9-35.7,29.6-36.5,52.7l-9.1,269c-0.2,6.8,3.8,13.1,10.1,15.8l-1.4,30.1
		c-0.3,6.8,3.6,13.2,9.9,15.9l60.2,26.5v11.9c0,9.1,7.4,16.6,16.6,16.6h239.4c9.1,0,16.6-7.4,16.6-16.6v-11.9l60.2-26.5
		c6.2-2.7,10.2-9.2,9.9-15.9l-1.4-30.1C467.1,408.3,471.2,402,470.9,395.2z M347.8,19.9c0.1,0.2,0.3,0.4,0.4,0.6l16.9,27.9l-3.7-1.5
		c-7.6-3.2-16.2-2.4-23.1,2l-72.8,46.3c-5.1,3.2-11.5,3.6-16.9,1.1L347.8,19.9z M326.5,16l-68,52.3L186.6,16H326.5z M163.8,20.4
		c0.2-0.3,0.3-0.5,0.5-0.7l80.9,58.9L234,87.2l-60.3-38.4c-6.9-4.4-15.6-5.2-23.1-2l-3.7,1.5L163.8,20.4z M66,442.4
		c-0.2-0.1-0.3-0.3-0.3-0.5l1.2-24.3l36.8,15.3l-0.6,19.2c-0.1,2.4,0.2,4.8,0.8,7L66,442.4z M376.3,478.4
		C376.3,478.4,376.3,478.5,376.3,478.4v17c0,0.3-0.2,0.5-0.5,0.5H136.3c-0.3,0-0.5-0.2-0.5-0.5v-17c0,0,0,0,0,0v-0.6h240.5V478.4z
		 M446,442.4L408.1,459c0.6-2.3,0.9-4.6,0.8-7l-0.6-19.2l36.8-15.3l1.2,24.3C446.3,442.1,446.2,442.3,446,442.4z M454.6,396.2
		l-46.7,19.4l-7-236.8c-0.1-4.4-3.9-7.9-8.3-7.8c-4.4,0.1-7.9,3.8-7.8,8.3l8.1,273.2c0.1,2.5-0.9,4.8-2.6,6.6
		c-1.7,1.8-4,2.7-6.5,2.7H128.2c-2.5,0-4.8-1-6.5-2.7c-1.7-1.8-2.6-4.1-2.6-6.5l8.1-273.2c0.1-4.4-3.3-8.1-7.8-8.3
		c-4.4-0.1-8.1,3.3-8.3,7.8l-7,236.8l-46.7-19.4c-0.2-0.1-0.3-0.3-0.3-0.5l9.1-269c0.6-16.9,11-32,26.6-38.5l64-26.6
		c2.7-1.1,5.9-0.9,8.4,0.7l65.7,41.8v117.6c0,4.4,3.6,8,8,8s8-3.6,8-8V112.6c5.9,1.7,12.2,1.7,18.2,0v109.2c0,4.4,3.6,8,8,8
		s8-3.6,8-8V104.1l65.7-41.8c2.5-1.6,5.6-1.9,8.4-0.7l64,26.6c15.6,6.5,26,21.6,26.6,38.5l9.1,269
		C454.9,395.9,454.8,396.2,454.6,396.2z"/>
	<g>
		<g>
			<path d="M356.9,414.3c-0.2-0.4-24.9-42-33.1-99.6c-0.6-4-3.9-6.9-7.9-6.9H196.1c-4,0-7.4,2.9-7.9,6.9
				c-8.2,57.4-32.9,99.2-33.1,99.6c-1.5,2.5-1.5,5.6-0.1,8.1c1.4,2.5,4.1,4.1,7,4.1h188.1c2.9,0,5.6-1.6,7-4.1
				S358.4,416.8,356.9,414.3z M175.3,410.5c8-16.2,21.2-47.3,27.7-86.6h106c6.6,39.3,19.8,70.4,27.7,86.6L175.3,410.5L175.3,410.5z"
				/>
		</g>
	</g>
	<path class="st0" d="M246.9,112.6c-4.8-1.3-10.5-3.7-16-8.4v117.6c0,4.4,3.6,8,8,8c4.4,0,8-3.6,8-8L246.9,112.6"/>
	<path class="st0" d="M265.1,112.6c4.8-1.3,10.5-3.7,16-8.4v117.6c0,4.4-3.6,8-8,8c-4.4,0-8-3.6-8-8L265.1,112.6"/>
</g>
</svg>
