<?xml version="1.0" encoding="utf-8"?>
<!-- Generator: Adobe Illustrator 21.0.0, SVG Export Plug-In . SVG Version: 6.00 Build 0)  -->
<svg version="1.1" id="Layer_1" xmlns="http://www.w3.org/2000/svg" xmlns:xlink="http://www.w3.org/1999/xlink" x="0px" y="0px"
	 viewBox="0 0 512 512" style="enable-background:new 0 0 512 512;" xml:space="preserve">
<style type="text/css">
	.st0{fill:#2185D0;}
</style>
<g>
	<path class="st0" d="M151,16h11.8c4.1,47.8,44.3,85.5,93.2,85.5s89.1-37.7,93.2-85.5H361c2.1,0,4.3,0.1,6.4,0.2
		c-2,27.1-13.6,52.3-33.1,71.5c-21,20.7-48.8,32-78.3,32c-29.4,0-57.1-11.3-78.1-31.8c-19.6-19.2-31.4-44.5-33.3-71.7
		C146.7,16.1,148.9,16,151,16z"/>
	<polygon class="st0" points="94,210.4 17,182.3 19.6,166.4 94,193.2 94,210.4 	"/>
	<rect x="110" y="478" class="st0" width="292" height="18"/>
	<polygon class="st0" points="418,210.4 418,193.2 492.4,166.4 495,182.3 	"/>
	<path d="M512,186.3L491.9,65.5c-3.9-23.3-21.2-42.1-44.1-47.8L392,3.8C381.9,1.3,371.5,0,361,0H151c-10.4,0-20.9,1.3-31,3.8
		L64.3,17.7C41.4,23.5,24,42.2,20.1,65.5L0,186.3c-0.6,3.8,1.5,7.5,5.2,8.9L94,227.4V504c0,4.4,3.6,8,8,8h308c4.4,0,8-3.6,8-8V227.4
		l88.8-32.3C510.5,193.8,512.6,190.1,512,186.3z M333.1,16c-4,39-37.1,69.5-77.1,69.5S182.9,55,178.9,16C178.9,16,333.1,16,333.1,16
		z M151,16h11.8c4.1,47.8,44.3,85.5,93.2,85.5s89.1-37.7,93.2-85.5H361c2.1,0,4.3,0.1,6.4,0.2c-2,27.1-13.6,52.3-33.1,71.5
		c-21,20.7-48.8,32-78.3,32c-29.4,0-57.1-11.3-78.1-31.8c-19.6-19.2-31.4-44.5-33.3-71.7C146.7,16.1,148.9,16,151,16z M94,210.4
		l-77-28l2.6-15.9L94,193.2L94,210.4L94,210.4z M402,496H110v-18h292V496z M411.2,120c-4.9-0.7-9.2,3.1-9.2,7.9v334H110V128.2
		c0-4-2.8-7.6-6.8-8.2c-4.9-0.7-9.2,3.1-9.2,7.9v48.2l-71.7-25.8L36,68.2c2.8-17,15.5-30.7,32.2-34.9l55.7-13.9
		c1.6-0.4,3.2-0.7,4.8-1.1c2.4,30.8,15.8,59.3,38.1,81.1c24,23.5,55.7,36.4,89.3,36.4c33.7,0,65.5-13,89.6-36.6
		c22.1-21.7,35.4-50.2,37.8-80.9c1.6,0.3,3.2,0.7,4.8,1.1l55.7,13.9c16.7,4.2,29.4,17.9,32.2,34.9l13.7,82.2L418,176.2v-48
		C418,124.2,415.2,120.6,411.2,120z M418,210.4v-17.1l74.4-26.8l2.6,15.9L418,210.4z"/>
</g>
</svg>
