<?xml version="1.0" encoding="utf-8"?>
<!-- Generator: Adobe Illustrator 21.0.0, SVG Export Plug-In . SVG Version: 6.00 Build 0)  -->
<svg version="1.1" id="Layer_1" xmlns="http://www.w3.org/2000/svg" xmlns:xlink="http://www.w3.org/1999/xlink" x="0px" y="0px"
	 viewBox="0 0 512 512" style="enable-background:new 0 0 512 512;" xml:space="preserve">
<style type="text/css">
	.st0{fill:#2185D0;}
</style>
<g>
	<path class="st0" d="M205,170c0,5-4,9-9,9h-33.9c-5,0-9.1-4.1-9.1-9.1V161h52L205,170L205,170z"/>
	<path class="st0" d="M332,33.8L297,89.7c0,0.1-0.1,0.2-0.4,0.2c-0.2,0-0.4-0.1-0.4-0.1l-27.8-22.2l54.3-47.5L332,33.8z"/>
	<path class="st0" d="M189.2,20.1l54.3,47.5l-27.8,22.2c-0.1,0-0.2,0.2-0.4,0.1c-0.2,0-0.3-0.2-0.4-0.2L180,33.8L189.2,20.1z"/>
	<path class="st0" d="M103,446.8l-43.1-16.4c-0.2-0.1-0.4-0.3-0.3-0.5l1.2-21.6L103,424V446.8z"/>
	<path class="st0" d="M452.1,430.3L409,446.7l0-22.7l42.2-15.8l1.2,21.6C452.5,430,452.3,430.2,452.1,430.3z"/>
	<g>
		<g>
			<path class="st0" d="M290.3,257H290c-2.9,0-5.6,1.5-6.8,4.1c-3.5,7.1,3.2,14,10.3,11.3c2-0.8,3.6-2.4,4.3-4.4
				C299.9,262.3,295.7,257,290.3,257z"/>
		</g>
	</g>
	<g>
		<g>
			<path class="st0" d="M290.4,376h-0.3c-2.9,0-5.6,1.5-6.8,4.1c-3.5,7.1,3.2,14,10.3,11.3c2-0.8,3.6-2.4,4.3-4.4
				C299.9,381.3,295.8,376,290.4,376z"/>
		</g>
	</g>
	<g>
		<g>
			<path class="st0" d="M290.3,197H290c-2.9,0-5.6,1.5-6.8,4.1c-3.5,7.1,3.2,14,10.3,11.3c2-0.8,3.6-2.4,4.3-4.4
				C299.9,202.3,295.7,197,290.3,197z"/>
		</g>
	</g>
	<g>
		<g>
			<path class="st0" d="M290.3,316H290c-2.9,0-5.6,1.5-6.8,4.1c-3.5,7.1,3.2,14,10.3,11.3c2-0.8,3.6-2.4,4.3-4.4
				C299.8,321.3,295.7,316,290.3,316z"/>
		</g>
	</g>
	<g>
		<g>
			<circle class="st0" cx="290.2" cy="144.8" r="8"/>
		</g>
	</g>
	<path d="M478.4,386.5L471,111.3c-0.7-24.3-16.5-46.1-39.4-54.3l-84.2-30L331.7,3.6c-1.3-1.9-3.3-3.2-5.6-3.5C325.7,0,325.4,0,325,0
		v0H188v0c-0.4,0-0.7,0-1.1,0.1c-2.3,0.3-4.3,1.6-5.6,3.5L165.7,27l-84.2,30C58.5,65.2,42.7,87,42,111.3l-7.4,275.2
		c-0.2,6.9,3.9,13.2,10.3,15.8l-1.5,26.6c-0.4,7.2,3.9,13.8,10.7,16.4l48.9,18.6c0.3,7.2,5.3,13.4,12.3,15.3l122.1,32.5
		c0.7,0.2,1.4,0.3,2.1,0.3c1.6,0,3.1-0.5,4.5-1.4c1.9-1.3,3.2-3.3,3.5-5.6l9.2-68.7l9.2,68.7c0.3,2.3,1.6,4.3,3.5,5.6
		c1.9,1.3,4.3,1.7,6.5,1.1l122.1-32.5c7-1.9,12-8.1,12.3-15.3l48.9-18.6c6.8-2.6,11.1-9.2,10.7-16.4l-1.5-26.6
		C474.5,399.7,478.6,393.4,478.4,386.5z M332,33.8L297,89.7c0,0.1-0.1,0.2-0.4,0.2c-0.2,0-0.4-0.1-0.4-0.1l-27.8-22.2l54.3-47.5
		L332,33.8z M189.2,20.1l54.3,47.5l-27.8,22.2c-0.1,0-0.2,0.2-0.4,0.1c-0.2,0-0.3-0.2-0.4-0.2L180,33.8L189.2,20.1z M103,446.8
		l-43.1-16.4c-0.2-0.1-0.4-0.3-0.3-0.5l1.2-21.6L103,424V446.8z M248,375L248,375l-15.7,118.7l-112.9-30.2c-0.2-0.1-0.4-0.3-0.4-0.5
		V153.4c0-4-2.8-7.6-6.8-8.2c-4.9-0.7-9.2,3.1-9.2,7.9v253.5l-51.7-19.5c-0.2-0.1-0.4-0.3-0.3-0.5l7.4-275.2
		C58.8,93.8,70.3,77.9,87,72l80.4-28.8L201.5,98c2.5,4,6.6,6.8,11.2,7.6c0.9,0.2,1.8,0.2,2.8,0.2c3.7,0,7.4-1.3,10.3-3.6L248,84.4
		L248,375L248,375z M256,57.2L208.9,16h94.1L256,57.2z M452.1,430.3L409,446.7l0-22.7l42.2-15.8l1.2,21.6
		C452.5,430,452.3,430.2,452.1,430.3z M460.6,387.1L409,406.5l0.2-253.5c0-4.4-3.6-8-8-8c0,0,0.8,0,0.8,0c-4.4,0-8,3.6-8,8
		l-0.3,309.8c0,0.2-0.2,0.5-0.4,0.5l-113.4,30.2L264,374.8V84.2l22.2,17.8c2.9,2.4,6.6,3.6,10.3,3.6c0.9,0,1.8-0.1,2.8-0.2
		c4.6-0.8,8.7-3.5,11.2-7.6L344.6,43l80.3,28.8c16.8,6,28.2,21.7,28.7,39.6l7.4,275.2C461,386.8,460.9,387,460.6,387.1z"/>
	<path d="M213,145h-68c-4.4,0-8,3.6-8,8v59.9c0,13.9,11.2,25.1,25.1,25.1h33.8c13.9,0,25.1-11.2,25.1-25.1V153
		C221,148.6,217.4,145,213,145z M205,213c0,5-4,9-9,9h-33.9c-5,0-9.1-4.1-9.1-9.1v-19.6c2.8,1.1,5.8,1.7,9,1.7h34
		c3.2,0,6.2-0.6,9-1.7L205,213L205,213z M205,170c0,5-4,9-9,9h-33.9c-5,0-9.1-4.1-9.1-9.1V161h52L205,170L205,170z"/>
</g>
</svg>
