<?xml version="1.0" encoding="utf-8"?>
<!-- Generator: Adobe Illustrator 21.0.0, SVG Export Plug-In . SVG Version: 6.00 Build 0)  -->
<svg version="1.1" id="Layer_1" xmlns="http://www.w3.org/2000/svg" xmlns:xlink="http://www.w3.org/1999/xlink" x="0px" y="0px"
	 viewBox="0 0 512 512" style="enable-background:new 0 0 512 512;" xml:space="preserve">
<style type="text/css">
	.st0{fill:#2185D0;}
</style>
<g>
	<g>
		<g>
			<path class="st0" d="M256.1,26h-0.3c-2.9,0-5.6,1.5-6.8,4.1c-3.5,7.1,3.2,14,10.3,11.3c2-0.8,3.6-2.4,4.3-4.4
				C265.6,31.3,261.5,26,256.1,26z"/>
		</g>
	</g>
	<path class="st0" d="M60,67.6c0-0.1,0-0.2,0.1-0.4s0.3-0.2,0.4-0.2H120v43c0,16.7-6.9,31.9-18,42.8v-34.2c0-9.2-7.4-16.6-16.6-16.6
		H61.3L60,67.6z"/>
	<polygon class="st0" points="221.9,496 76.3,496 75.6,478 222.6,478 	"/>
	<path class="st0" d="M265,67v128.9c0,5-4.1,9.1-9.1,9.1H247V67H265z"/>
	<polygon class="st0" points="435.7,496 290.1,496 289.4,478 436.4,478 	"/>
	<path class="st0" d="M452.6,67.6l-4,103c-31.6-2-56.6-28.2-56.6-60.3V67h60.1c0.1,0,0.2,0,0.4,0.2
		C452.6,67.3,452.6,67.5,452.6,67.6z"/>
	<path d="M463.6,57.2c-1.1-1.1-2.3-2-3.6-2.8V8c0-4.4-3.6-8-8-8H59c-4.4,0-8,3.6-8,8v46.4c-1.3,0.8-2.5,1.7-3.6,2.8
		c-3.1,3.3-4.8,7.6-4.6,12.1l16.7,435c0.2,4.3,3.7,7.7,8,7.7h162.2c4.3,0,7.8-3.4,8-7.7l8.2-222.6c0.2-4.9,4.2-8.7,9.1-8.7h1
		c4.9,0,8.9,3.8,9.1,8.7l8.2,222.6c0.2,4.3,3.7,7.7,8,7.7h162.2c4.3,0,7.8-3.4,8-7.7l16.7-435C468.4,64.8,466.7,60.5,463.6,57.2z
		 M153,16h69v35h-69V16z M68,16h69v35H68V16z M60,67.6c0-0.1,0-0.2,0.1-0.4s0.3-0.2,0.4-0.2H120v43c0,16.7-6.9,31.9-18,42.8v-34.2
		c0-9.2-7.4-16.6-16.6-16.6H61.3L60,67.6z M61.6,119h23.9c0.3,0,0.5,0.2,0.5,0.5v45.9c-6.9,3.3-14.4,5.4-22.4,5.9L61.6,119z
		 M221.9,496H76.3l-0.7-18h147L221.9,496z M231,278.2c-0.1,1-0.2,1.9-0.3,3L224,462H74.6L64.1,187.5c40.1-2.3,71.9-35.6,71.9-76.2
		V68h95V278.2z M375,16h69v35h-69V16z M238,51V16h121v35L238,51L238,51z M265,67v128.9c0,5-4.1,9.1-9.1,9.1H247V67H265z M435.7,496
		H290.1l-0.7-18h147L435.7,496z M437.4,462H288.2l-6.7-181.7c-0.5-13.6-11.6-24.3-25.2-24.3h-0.5c-3.1,0-6,0.6-8.7,1.6V221h8.9
		c13.9,0,25.1-11.2,25.1-25.1V68h95v43.2c0,40.6,31.9,73.9,71.9,76.2L437.4,462z M452.6,67.6l-4,103c-31.6-2-56.6-28.2-56.6-60.3V67
		h60.1c0.1,0,0.2,0,0.4,0.2C452.6,67.3,452.6,67.5,452.6,67.6z"/>
</g>
</svg>
