<?xml version="1.0" encoding="utf-8"?>
<!-- Generator: Adobe Illustrator 21.0.0, SVG Export Plug-In . SVG Version: 6.00 Build 0)  -->
<svg version="1.1" id="Layer_1" xmlns="http://www.w3.org/2000/svg" xmlns:xlink="http://www.w3.org/1999/xlink" x="0px" y="0px"
	 viewBox="0 0 512 512" style="enable-background:new 0 0 512 512;" xml:space="preserve">
<style type="text/css">
	.st0{fill:#2185D0;}
</style>
<g>
	<path class="st0" d="M172.2,16h16.4c4,33.7,32.7,59.9,67.4,59.9s63.4-26.2,67.4-59.9h16.4c0.6,0,1.3,0,1.9,0
		c-4.1,44.1-40.9,78-85.7,78c-22.4,0-43.6-8.6-59.8-24.1c-14.9-14.4-24-33.4-25.9-53.9C171,16,171.6,16,172.2,16z"/>
	<path class="st0" d="M95.1,457.2l-35.8-17.9c-0.2-0.1-0.3-0.3-0.3-0.5v-21.6l36.2,15.5L94.7,452C94.7,453.8,94.8,455.5,95.1,457.2z
		"/>
	<path class="st0" d="M384.5,496H127.5c-0.3,0-0.5-0.2-0.5-0.5V478h258v17.5C385,495.8,384.8,496,384.5,496z"/>
	<path class="st0" d="M115.3,265l0.4-16.6l15.2,6.4c2,0.8,4.2,0.8,6.2,0l37.5-15.8l37.5,15.8c2,0.8,4.2,0.8,6.2,0l37.5-15.8
		l37.5,15.8c2,0.8,4.2,0.8,6.2,0l37.5-15.8l37.5,15.8c1,0.4,2,0.6,3.1,0.6s2.1-0.2,3.1-0.6l15.3-6.4l0.4,16.6l-18.8,7.9l-37.6-15.8
		c-2-0.8-4.2-0.8-6.2,0L296.5,273L259,257.2c-2-0.8-4.2-0.8-6.2,0L215.3,273l-37.5-15.8c-2-0.8-4.2-0.8-6.2,0L134.1,273L115.3,265z"
		/>
	<path class="st0" d="M131,391.7c2,0.8,4.2,0.8,6.2,0l37.5-15.8l37.5,15.8c2,0.8,4.2,0.8,6.2,0l37.5-15.8l37.5,15.8
		c2,0.8,4.2,0.8,6.2,0l37.5-15.8l37.5,15.8c1,0.4,2.1,0.6,3.1,0.6s2.1-0.2,3.1-0.6l18.8-7.9l0.4,16.6l-22.3,9.4L340.3,394
		c-2-0.8-4.2-0.8-6.2,0l-37.5,15.8L259,394c-2-0.8-4.2-0.8-6.2,0l-37.5,15.8L177.8,394c-2-0.8-4.2-0.8-6.2,0l-37.5,15.8l-22.3-9.4
		l0.4-16.6L131,391.7z"/>
	<path class="st0" d="M452.7,439.3l-35.8,17.9c0.3-1.7,0.4-3.4,0.4-5.2l-0.5-19.3l36.2-15.5v21.6C453,439,452.9,439.2,452.7,439.3z"
		/>
	<path d="M470.3,97.5c-0.9-36.6-24.8-68.4-59.6-79.2L362.6,3.4C355.4,1.1,347.9,0,340.3,0H171.7c-7.6,0-15.1,1.1-22.3,3.4
		l-48.1,14.9C66.5,29,42.6,60.8,41.7,97.5l-7.1,297.9c-0.1,6.2,3.1,11.8,8.4,14.8v28.6c0,6.3,3.5,12,9.1,14.8l58.9,29.6v12.1
		c0,9.2,7.4,16.6,16.6,16.6h256.9c9.2,0,16.6-7.4,16.6-16.6v-12.1l58.9-29.6c5.6-2.8,9.1-8.5,9.1-14.8v-28.6c5.3-3,8.5-8.6,8.4-14.8
		L470.3,97.5z M307.2,16c-3.9,24.8-25.4,43.8-51.2,43.8s-47.4-19-51.2-43.8H307.2z M172.2,16h16.4c4,33.7,32.7,59.9,67.4,59.9
		s63.4-26.2,67.4-59.9h16.4c0.6,0,1.3,0,1.9,0c-4.1,44.1-40.9,78-85.7,78c-22.4,0-43.6-8.6-59.8-24.1c-14.9-14.4-24-33.4-25.9-53.9
		C171,16,171.6,16,172.2,16z M95.1,457.2l-35.8-17.9c-0.2-0.1-0.3-0.3-0.3-0.5v-21.6l36.2,15.5L94.7,452
		C94.7,453.8,94.8,455.5,95.1,457.2z M384.5,496H127.5c-0.3,0-0.5-0.2-0.5-0.5V478h258v17.5C385,495.8,384.8,496,384.5,496z
		 M398.5,460c-1.7,1.4-3.8,2-6,2L120,462v0c-2.5,0-4.8-1-6.5-2.7c-1.7-1.8-2.6-4.1-2.6-6.6l0.9-34.8l19.6,8.2c2,0.8,4.2,0.8,6.2,0
		l37.5-15.8l37.5,15.8c2,0.8,4.2,0.8,6.2,0l37.5-15.8l37.5,15.8c2,0.8,4.2,0.8,6.2,0l37.5-15.8l37.5,15.8c1,0.4,2,0.6,3.1,0.6
		c1.1,0,2.1-0.2,3.1-0.6l19.6-8.3l0.9,34.8C401.9,455.5,400.7,458.1,398.5,460z M131,289c2,0.8,4.2,0.8,6.2,0l37.5-15.8l37.5,15.8
		c1,0.4,2.1,0.6,3.1,0.6s2.1-0.2,3.1-0.6l37.5-15.8l37.5,15.8c2,0.8,4.2,0.8,6.2,0l37.5-15.8l37.5,15.8c2,0.8,4.2,0.8,6.2,0
		l16.2-6.8l2.2,84.3l-21.4,9l-37.6-15.8c-2-0.8-4.2-0.8-6.2,0l-37.5,15.8L259,359.8c-2-0.8-4.2-0.8-6.2,0l-37.5,15.8l-37.5-15.8
		c-2-0.8-4.2-0.8-6.2,0l-37.5,15.8l-21.4-9l2.2-84.3L131,289z M115.3,265l0.4-16.6l15.2,6.4c2,0.8,4.2,0.8,6.2,0l37.5-15.8
		l37.5,15.8c2,0.8,4.2,0.8,6.2,0l37.5-15.8l37.5,15.8c2,0.8,4.2,0.8,6.2,0l37.5-15.8l37.5,15.8c1,0.4,2,0.6,3.1,0.6s2.1-0.2,3.1-0.6
		l15.3-6.4l0.4,16.6l-18.8,7.9l-37.6-15.8c-2-0.8-4.2-0.8-6.2,0L296.5,273L259,257.2c-2-0.8-4.2-0.8-6.2,0L215.3,273l-37.5-15.8
		c-2-0.8-4.2-0.8-6.2,0L134.1,273L115.3,265z M131,391.7c2,0.8,4.2,0.8,6.2,0l37.5-15.8l37.5,15.8c2,0.8,4.2,0.8,6.2,0l37.5-15.8
		l37.5,15.8c2,0.8,4.2,0.8,6.2,0l37.5-15.8l37.5,15.8c1,0.4,2.1,0.6,3.1,0.6s2.1-0.2,3.1-0.6l18.8-7.9l0.4,16.6l-22.3,9.4L340.3,394
		c-2-0.8-4.2-0.8-6.2,0l-37.5,15.8L259,394c-2-0.8-4.2-0.8-6.2,0l-37.5,15.8L177.8,394c-2-0.8-4.2-0.8-6.2,0l-37.5,15.8l-22.3-9.4
		l0.4-16.6L131,391.7z M452.7,439.3l-35.8,17.9c0.3-1.7,0.4-3.4,0.4-5.2l-0.5-19.3l36.2-15.5v21.6C453,439,452.9,439.2,452.7,439.3z
		 M461.3,396.3l-44.8,19.2l-7.2-279.4c-0.1-4.4-3.8-7.9-8.2-7.8c-4.4,0.1-7.9,3.8-7.8,8.2l2.4,94.7l-18,7.6L340.3,223
		c-2-0.8-4.2-0.8-6.2,0l-37.5,15.8L259,223c-2-0.8-4.2-0.8-6.2,0l-37.5,15.8L177.8,223c-2-0.8-4.2-0.8-6.2,0l-37.5,15.8l-17.9-7.5
		l2.4-94.7c0.1-4.4-3.4-8.1-7.8-8.2c-4.4-0.1-8.1,3.4-8.2,7.8l-7.2,279.4l-44.8-19.2c-0.2-0.1-0.3-0.3-0.3-0.5l7.1-297.9
		c0.7-29.7,20.3-55.5,48.6-64.3l48.3-14.9c0,0,0,0,0,0c2.5,23.9,13.2,45.9,30.6,62.8c19.1,18.5,44.3,28.6,70.9,28.6
		c26.5,0,51.7-10.1,70.8-28.5c17.5-16.8,28.2-39,30.7-62.9c0,0,0,0,0,0l48.3,14.9c28.4,8.7,47.9,34.6,48.6,64.3l7.1,297.9
		C461.6,396,461.5,396.2,461.3,396.3z"/>
</g>
</svg>
